# xmcd
#
# Track frame offsets: 
#        150
#        16010
#        32413
#        56438
#        80565
#        109368
#        128250
#        148963
#        173600
#        196550
#        214968
#        233920
#        256445
#        263970
#
# Disc length: 4007 seconds
#
# Revision: 2
# Processed by: cddbd v1.5.2PL0 Copyright (c) Steve Scherf et al.
# Submitted via: ExactAudioCopy v0.99pb4
#
DISCID=b80fa50e
DTITLE=Blue By Nature - Blue To The Bone
DYEAR=1995
DGENRE=Blues
TTITLE0=Cadillac Blues
TTITLE1=Hard Lesson
TTITLE2=No Matter What I Do
TTITLE3=The Blues In My Way
TTITLE4=It's a Man's, Man's, Man's, Man's World
TTITLE5=So Many Roads, So Many Trains
TTITLE6=Goodbye Mr. Jones
TTITLE7=Love Hurts
TTITLE8=Love Me All Night
TTITLE9=Willie Boy's Shuffle
TTITLE10=One Of These Days
TTITLE11=Tell Me
TTITLE12=Grinnin' In Your Face
TTITLE13=Blue By Nature
EXTD=
EXTT0=
EXTT1=
EXTT2=
EXTT3=
EXTT4=
EXTT5=
EXTT6=
EXTT7=
EXTT8=
EXTT9=
EXTT10=
EXTT11=
EXTT12=
EXTT13=
PLAYORDER=
